<svg width="138" height="154" viewBox="0 0 138 154" fill="none" xmlns="http://www.w3.org/2000/svg">
<circle cx="69" cy="77" r="69" fill="#2F2F2F"/>
<path d="M86.872 48.912C89.5173 52.496 90.84 56.336 90.84 60.432C90.84 63.3333 90.2 65.936 88.92 68.24C87.64 70.544 85.6347 73.1467 82.904 76.048C80.5147 78.5227 78.7653 80.8693 77.656 83.088C76.5467 85.2213 75.8213 87.2267 75.48 89.104C75.224 90.896 74.9253 93.7547 74.584 97.68C74.584 99.6427 73.9013 101.093 72.536 102.032C71.1707 102.885 69.7627 103.312 68.312 103.312C64.472 103.312 62.552 101.008 62.552 96.4C62.552 93.9253 62.9787 90.9813 63.832 87.568C64.6853 84.1547 66.264 80.4427 68.568 76.432C69.336 75.0667 70.3173 73.7013 71.512 72.336C72.792 70.9707 73.6027 70.0747 73.944 69.648C75.3093 68.1973 76.4613 66.704 77.4 65.168C78.3387 63.5467 78.808 62.1387 78.808 60.944C78.808 59.5787 78.5947 58.512 78.168 57.744C77.8267 56.976 77.272 56.1227 76.504 55.184C75.3947 53.904 73.944 52.88 72.152 52.112C70.36 51.344 68.696 50.96 67.16 50.96C64.6853 50.96 62.3813 51.4293 60.248 52.368C58.2 53.2213 56.536 54.3733 55.256 55.824C54.0613 57.1893 53.464 58.5973 53.464 60.048C53.464 62.4373 53.9333 64.2293 54.872 65.424C55.8107 66.5333 56.28 67.5573 56.28 68.496C56.28 69.008 56.152 69.6053 55.896 70.288C54.872 72.6773 53.1227 73.872 50.648 73.872C47.4907 73.872 45.1867 72.6773 43.736 70.288C42.2853 67.8987 41.56 64.8693 41.56 61.2C41.56 57.7013 42.6693 54.3733 44.888 51.216C47.1067 47.9733 50.3493 45.328 54.616 43.28C58.8827 41.232 63.96 40.208 69.848 40.208C73.2613 40.208 76.4613 40.976 79.448 42.512C82.4347 43.9627 84.9093 46.096 86.872 48.912ZM68.312 108.176C70.872 108.176 72.92 109.072 74.456 110.864C75.736 112.144 76.376 113.893 76.376 116.112C76.376 117.989 75.48 119.568 73.688 120.848C71.896 122.043 69.9333 122.64 67.8 122.64C66.264 122.64 64.7707 122.213 63.32 121.36C61.528 120.08 60.632 117.819 60.632 114.576C60.632 112.869 61.4 111.376 62.936 110.096C64.5573 108.816 66.3493 108.176 68.312 108.176Z" fill="white"/>
</svg>
