<svg width="138" height="184" viewBox="0 0 138 184" fill="none" xmlns="http://www.w3.org/2000/svg">
<path d="M138 77C138 115.108 107.108 146 69 146C30.8924 146 0 115.108 0 77C0 38.8924 30.8924 8 69 8C107.108 8 138 38.8924 138 77Z" fill="#2F2F2F"/>
<path d="M86.872 48.912C89.5173 52.496 90.84 56.336 90.84 60.432C90.84 63.3333 90.2 65.936 88.92 68.24C87.64 70.544 85.6347 73.1467 82.904 76.048C80.5147 78.5227 78.7653 80.8693 77.656 83.088C76.5467 85.2213 75.8213 87.2267 75.48 89.104C75.224 90.896 74.9253 93.7547 74.584 97.68C74.584 99.6427 73.9013 101.093 72.536 102.032C71.1707 102.885 69.7627 103.312 68.312 103.312C64.472 103.312 62.552 101.008 62.552 96.4C62.552 93.9253 62.9787 90.9813 63.832 87.568C64.6853 84.1547 66.264 80.4427 68.568 76.432C69.336 75.0667 70.3173 73.7013 71.512 72.336C72.792 70.9707 73.6027 70.0747 73.944 69.648C75.3093 68.1973 76.4613 66.704 77.4 65.168C78.3387 63.5467 78.808 62.1387 78.808 60.944C78.808 59.5787 78.5947 58.512 78.168 57.744C77.8267 56.976 77.272 56.1227 76.504 55.184C75.3947 53.904 73.944 52.88 72.152 52.112C70.36 51.344 68.696 50.96 67.16 50.96C64.6853 50.96 62.3813 51.4293 60.248 52.368C58.2 53.2213 56.536 54.3733 55.256 55.824C54.0613 57.1893 53.464 58.5973 53.464 60.048C53.464 62.4373 53.9333 64.2293 54.872 65.424C55.8107 66.5333 56.28 67.5573 56.28 68.496C56.28 69.008 56.152 69.6053 55.896 70.288C54.872 72.6773 53.1227 73.872 50.648 73.872C47.4907 73.872 45.1867 72.6773 43.736 70.288C42.2853 67.8987 41.56 64.8693 41.56 61.2C41.56 57.7013 42.6693 54.3733 44.888 51.216C47.1067 47.9733 50.3493 45.328 54.616 43.28C58.8827 41.232 63.96 40.208 69.848 40.208C73.2613 40.208 76.4613 40.976 79.448 42.512C82.4347 43.9627 84.9093 46.096 86.872 48.912ZM68.312 108.176C70.872 108.176 72.92 109.072 74.456 110.864C75.736 112.144 76.376 113.893 76.376 116.112C76.376 117.989 75.48 119.568 73.688 120.848C71.896 122.043 69.9333 122.64 67.8 122.64C66.264 122.64 64.7707 122.213 63.32 121.36C61.528 120.08 60.632 117.819 60.632 114.576C60.632 112.869 61.4 111.376 62.936 110.096C64.5573 108.816 66.3493 108.176 68.312 108.176Z" fill="white"/>
<path d="M20.92 158.24C21.24 158.624 21.464 158.933 21.592 159.168C21.72 159.403 21.784 159.627 21.784 159.84C21.784 160.096 21.6133 160.395 21.272 160.736C20.952 161.077 20.632 161.248 20.312 161.248C19.8853 161.248 19.544 161.184 19.288 161.056C19.032 160.928 18.8187 160.725 18.648 160.448C18.3067 159.936 17.8907 159.499 17.4 159.136C16.9093 158.752 16.1413 158.56 15.096 158.56C14.2 158.56 13.176 158.763 12.024 159.168C10.8933 159.573 10.0827 160.075 9.592 160.672C9.16533 161.205 8.792 162.016 8.472 163.104C8.17333 164.192 8.024 165.248 8.024 166.272C8.024 167.509 8.29067 168.651 8.824 169.696C9.37867 170.72 10.168 171.541 11.192 172.16C12.2373 172.779 13.4853 173.088 14.936 173.088C15.7253 173.088 16.536 172.939 17.368 172.64C18.2213 172.32 18.9573 171.808 19.576 171.104H19.544C19.928 170.699 20.408 170.496 20.984 170.496C21.3253 170.496 21.6453 170.645 21.944 170.944C22.264 171.243 22.424 171.541 22.424 171.84C22.424 172.16 22.3707 172.448 22.264 172.704C22.1787 172.939 22.008 173.205 21.752 173.504C20.8773 174.485 19.8427 175.157 18.648 175.52C17.4533 175.883 16.024 176.064 14.36 176.064C12.888 176.064 11.3947 175.712 9.88 175.008C8.38667 174.304 7.23467 173.451 6.424 172.448C5.99733 171.829 5.58133 170.944 5.176 169.792C4.792 168.619 4.6 167.669 4.6 166.944C4.6 165.088 4.87733 163.328 5.432 161.664C6.008 159.979 6.86133 158.635 7.992 157.632C8.73867 156.949 9.816 156.437 11.224 156.096C12.632 155.755 13.9227 155.584 15.096 155.584C16.5253 155.584 17.6453 155.787 18.456 156.192C19.288 156.576 20.1093 157.259 20.92 158.24ZM37.9305 165.728C38.1012 166.027 38.2398 166.464 38.3465 167.04C38.4532 167.595 38.5065 168.096 38.5065 168.544C38.5065 169.376 38.3252 170.56 37.9625 172.096C36.4905 174.784 34.3145 176.128 31.4345 176.128C30.3678 176.128 29.2798 175.776 28.1705 175.072C27.0612 174.368 26.2932 173.557 25.8665 172.64C25.2905 170.805 25.0025 169.643 25.0025 169.152C25.0025 168.299 25.1838 167.392 25.5465 166.432C25.9305 165.472 26.4105 164.64 26.9865 163.936C27.3492 163.445 27.9998 163.029 28.9385 162.688C29.8772 162.325 30.7305 162.144 31.4985 162.144C32.9918 162.144 34.2612 162.432 35.3065 163.008C36.3518 163.563 37.2265 164.469 37.9305 165.728ZM35.1465 170.88C35.2532 170.603 35.3065 169.888 35.3065 168.736C35.3065 168.117 35.1892 167.509 34.9545 166.912C34.7412 166.315 34.4212 165.803 33.9945 165.376C33.9518 165.333 33.8345 165.269 33.6425 165.184C33.4505 165.077 33.1838 164.981 32.8425 164.896C32.5225 164.789 32.1492 164.736 31.7225 164.736C30.5278 164.736 29.6532 165.216 29.0985 166.176C28.5438 167.136 28.2665 168.224 28.2665 169.44C28.2665 169.653 28.3198 170.059 28.4265 170.656C28.5545 171.253 28.6612 171.627 28.7465 171.776C28.8105 171.925 28.9705 172.139 29.2265 172.416C29.5038 172.672 29.8345 172.907 30.2185 173.12C30.6238 173.312 31.0398 173.408 31.4665 173.408C32.4265 173.408 33.1945 173.184 33.7705 172.736C34.3465 172.267 34.8052 171.648 35.1465 170.88ZM43.0095 162.112C44.4175 162.112 45.1215 163.04 45.1215 164.896C45.1215 165.131 45.1002 165.653 45.0575 166.464C45.0148 167.403 44.9935 168.139 44.9935 168.672C44.9935 170.165 45.1962 171.371 45.6015 172.288C45.7508 172.587 46.0175 172.821 46.4015 172.992C46.8068 173.163 47.1482 173.248 47.4255 173.248C47.8522 173.248 48.2042 173.195 48.4815 173.088C48.7588 172.981 49.0148 172.821 49.2495 172.608C49.5055 172.395 49.7508 172.16 49.9855 171.904C50.3908 171.456 50.6468 170.944 50.7535 170.368C50.8815 169.771 50.9562 168.981 50.9775 168C50.9775 167.381 51.0095 166.784 51.0735 166.208C51.2015 165.269 51.2655 164.395 51.2655 163.584C51.2655 163.136 51.3828 162.763 51.6175 162.464C51.8735 162.144 52.2362 161.984 52.7055 161.984C52.9402 161.984 53.2175 162.069 53.5375 162.24C53.8788 162.389 54.1028 162.56 54.2095 162.752C54.3588 163.008 54.4335 163.36 54.4335 163.808C54.4335 164.085 54.4015 164.341 54.3375 164.576C54.2308 164.896 54.1775 165.301 54.1775 165.792C54.1775 166.048 54.1988 166.475 54.2415 167.072C54.3055 167.52 54.3375 167.979 54.3375 168.448C54.3375 169.877 54.4442 170.933 54.6575 171.616C54.8922 172.341 55.2122 172.981 55.6175 173.536C56.0442 173.984 56.3322 174.315 56.4815 174.528C56.6308 174.72 56.7055 174.891 56.7055 175.04C56.7055 175.296 56.5775 175.541 56.3215 175.776C56.0655 176.011 55.7988 176.128 55.5215 176.128C54.7322 176.128 54.0388 175.861 53.4415 175.328C52.8655 174.773 52.4388 174.069 52.1615 173.216C51.9268 173.493 51.6175 173.835 51.2335 174.24C50.8495 174.645 50.4868 174.976 50.1455 175.232C49.3135 175.829 48.2468 176.128 46.9455 176.128C46.4122 176.128 45.8255 175.968 45.1855 175.648C44.5668 175.328 44.0015 174.912 43.4895 174.4C42.9775 173.867 42.6255 173.301 42.4335 172.704C42.4122 172.661 42.3482 172.491 42.2415 172.192C42.1562 171.893 42.1135 171.445 42.1135 170.848L42.0815 165.728C42.0815 165.429 42.0068 164.96 41.8575 164.32C41.7295 163.893 41.6655 163.573 41.6655 163.36C41.6655 162.997 41.7828 162.699 42.0175 162.464C42.2735 162.229 42.6042 162.112 43.0095 162.112ZM73.6943 173.536C73.8009 173.579 73.9716 173.632 74.2063 173.696C74.4409 173.76 74.6116 173.824 74.7183 173.888C74.8249 173.952 74.8783 174.048 74.8783 174.176C74.8996 174.688 74.7076 175.115 74.3022 175.456C73.9183 175.776 73.4596 175.936 72.9263 175.936C72.0943 175.936 71.4436 175.712 70.9743 175.264C70.5049 174.816 70.1636 174.133 69.9503 173.216C69.8649 172.853 69.8223 172.352 69.8223 171.712C69.8223 171.349 69.8436 170.763 69.8863 169.952C69.9289 169.099 69.9503 168.416 69.9503 167.904C69.9503 167.157 69.7369 166.507 69.3103 165.952C68.9049 165.376 68.3289 165.088 67.5823 165.088C67.1343 165.088 66.6649 165.227 66.1743 165.504C65.6836 165.76 65.3423 166.08 65.1503 166.464C64.8303 167.083 64.6063 167.755 64.4783 168.48C64.2436 169.76 64.1263 171.093 64.1263 172.48C64.1263 173.141 64.1369 173.653 64.1583 174.016C64.1583 174.101 64.1583 174.272 64.1583 174.528C64.1796 174.763 64.1583 174.987 64.0943 175.2C64.0516 175.392 63.9663 175.573 63.8383 175.744C63.7316 175.851 63.5609 175.936 63.3263 176C63.1129 176.085 62.9103 176.128 62.7183 176.128C62.4196 176.128 62.0463 176 61.5983 175.744C61.1503 175.488 60.8943 175.2 60.8303 174.88L60.7983 174.336C60.7983 174.144 60.8196 173.92 60.8623 173.664C61.1183 172.171 61.2463 170.869 61.2463 169.76C61.2463 169.269 61.2356 168.885 61.2143 168.608L61.1823 167.104C61.1823 166.592 61.0543 166.101 60.7983 165.632C60.5423 165.141 60.2436 164.896 59.9023 164.896C59.7956 164.896 59.6463 164.939 59.4543 165.024C59.2623 165.088 59.1023 165.12 58.9743 165.12C58.7609 165.12 58.5263 165.013 58.2703 164.8C58.0356 164.587 57.9183 164.363 57.9183 164.128C57.9183 163.68 58.0676 163.317 58.3663 163.04C58.6863 162.784 58.9956 162.581 59.2943 162.432C59.6143 162.283 59.9769 162.208 60.3823 162.208C60.7236 162.208 61.0009 162.24 61.2143 162.304C61.4276 162.368 61.7156 162.507 62.0783 162.72C62.2703 162.827 62.4943 163.061 62.7503 163.424C63.0063 163.787 63.2196 164.299 63.3903 164.96C63.9449 163.936 64.6276 163.221 65.4383 162.816C66.2703 162.389 67.3263 162.176 68.6063 162.176C69.0969 162.176 69.6196 162.336 70.1743 162.656C70.7503 162.976 71.2409 163.349 71.6463 163.776C72.0303 164.245 72.3503 164.832 72.6063 165.536C72.8623 166.219 72.9903 166.837 72.9903 167.392C72.9903 167.712 72.9689 168.235 72.9263 168.96C72.8623 169.536 72.8303 170.144 72.8303 170.784C72.8303 172.277 73.1183 173.195 73.6943 173.536ZM77.196 164.864C76.8973 164.821 76.652 164.704 76.46 164.512C76.2893 164.299 76.204 164.043 76.204 163.744C76.204 163.36 76.3533 163.04 76.652 162.784C76.716 162.72 76.8227 162.667 76.972 162.624C77.1213 162.56 77.2387 162.507 77.324 162.464C77.7933 162.315 78.092 162.197 78.22 162.112C78.7107 161.813 79.0413 161.323 79.212 160.64C79.3827 159.829 79.4893 159.275 79.532 158.976C79.5747 158.507 79.724 158.155 79.98 157.92C80.2573 157.664 80.5987 157.536 81.004 157.536C81.5373 157.536 81.9107 157.675 82.124 157.952C82.3373 158.229 82.444 158.741 82.444 159.488C82.444 160.469 82.2093 161.397 81.74 162.272C82.0387 162.272 82.5293 162.251 83.212 162.208C84.236 162.165 84.9507 162.144 85.356 162.144C85.7187 162.144 86.028 162.24 86.284 162.432C86.5613 162.603 86.7 162.859 86.7 163.2C86.7 164.011 86.3267 164.491 85.58 164.64C84.8973 164.832 83.66 164.949 81.868 164.992C81.7187 167.083 81.644 168.736 81.644 169.952C81.644 170.699 81.676 171.232 81.74 171.552C81.868 172.213 82.0813 172.704 82.38 173.024C82.7 173.323 83.1693 173.472 83.788 173.472C84.0867 173.472 84.5347 173.397 85.132 173.248C85.4947 173.141 85.7827 173.088 85.996 173.088C86.2733 173.088 86.4867 173.184 86.636 173.376C86.7853 173.568 86.86 173.824 86.86 174.144C86.86 174.72 86.4867 175.2 85.74 175.584C84.9933 175.947 84.108 176.128 83.084 176.128C82.444 176.128 81.8147 175.979 81.196 175.68C80.5773 175.36 80.0547 174.976 79.628 174.528C79.5427 174.485 79.4147 174.251 79.244 173.824C79.0947 173.397 78.9453 172.928 78.796 172.416C78.732 172.16 78.7 171.541 78.7 170.56C78.7 169.621 78.764 168 78.892 165.696L78.924 164.992C78.7747 164.992 78.4973 164.981 78.092 164.96C77.6867 164.917 77.388 164.885 77.196 164.864ZM93.6128 174.72C93.5701 175.083 93.4208 175.403 93.1648 175.68C92.9088 175.957 92.5781 176.096 92.1727 176.096C91.5328 176.096 91.0634 175.979 90.7648 175.744C90.4661 175.488 90.3168 175.029 90.3168 174.368C90.3168 173.472 90.3701 172.491 90.4768 171.424C90.5621 170.187 90.6048 169.237 90.6048 168.576C90.6048 168.235 90.5834 167.808 90.5408 167.296C90.4981 166.827 90.4768 166.475 90.4768 166.24C90.4128 165.877 90.2634 165.589 90.0288 165.376C89.8154 165.163 89.4741 164.981 89.0048 164.832C88.8128 164.747 88.6528 164.608 88.5247 164.416C88.3968 164.203 88.3328 164.011 88.3328 163.84C88.3328 163.349 88.5248 162.976 88.9088 162.72C89.2928 162.464 89.7621 162.336 90.3168 162.336C90.9354 162.336 91.4688 162.549 91.9168 162.976C92.3648 163.403 92.7061 163.936 92.9408 164.576C93.4314 163.872 94.0288 163.307 94.7328 162.88C95.4581 162.453 96.1621 162.24 96.8448 162.24C97.7194 162.24 98.4554 162.389 99.0528 162.688C99.6714 162.965 99.9808 163.456 99.9808 164.16C99.9808 164.565 99.7994 164.992 99.4368 165.44C99.0954 165.867 98.7434 166.08 98.3808 166.08C98.1034 166.08 97.7728 165.952 97.3888 165.696C97.2394 165.589 97.0688 165.504 96.8767 165.44C96.7061 165.355 96.5248 165.312 96.3328 165.312C95.9914 165.312 95.6714 165.365 95.3728 165.472C95.0741 165.579 94.8714 165.707 94.7648 165.856C94.4234 166.389 94.1674 166.869 93.9968 167.296C93.8474 167.723 93.7728 168.181 93.7728 168.672C93.7728 169.035 93.7621 169.323 93.7408 169.536L93.7088 171.36L93.7408 172.576C93.7408 173.472 93.6981 174.187 93.6128 174.72ZM103.452 155.456C104.198 155.52 104.838 155.723 105.372 156.064C105.926 156.384 106.204 156.875 106.204 157.536C106.204 158.027 105.98 158.421 105.532 158.72C105.084 158.997 104.529 159.136 103.868 159.136C103.249 159.136 102.822 158.976 102.588 158.656C102.353 158.336 102.236 158.005 102.236 157.664C102.236 157.045 102.31 156.523 102.46 156.096C102.609 155.648 102.94 155.435 103.452 155.456ZM102.812 168.672V167.744C102.812 166.677 102.758 165.707 102.652 164.832C102.566 163.936 102.513 163.381 102.492 163.168C102.513 162.933 102.673 162.709 102.972 162.496C103.27 162.283 103.537 162.176 103.772 162.176C104.177 162.176 104.582 162.261 104.988 162.432C105.414 162.581 105.681 162.773 105.788 163.008C105.894 163.797 105.948 164.405 105.948 164.832C105.948 165.771 105.99 167.307 106.076 169.44L106.108 170.688L106.172 171.904C106.193 172.245 106.214 172.651 106.236 173.12C106.257 173.589 106.268 174.123 106.268 174.72C106.268 175.125 106.065 175.467 105.66 175.744C105.276 176.021 104.87 176.16 104.444 176.16C103.825 176.16 103.388 176.021 103.132 175.744C102.897 175.467 102.78 175.029 102.78 174.432L102.812 168.672ZM109.753 169.216C109.753 168.405 109.902 167.595 110.201 166.784C110.499 165.952 110.894 165.195 111.385 164.512C111.875 163.829 112.654 163.275 113.721 162.848C114.787 162.4 115.737 162.176 116.569 162.176C117.422 162.176 118.286 162.293 119.161 162.528C120.057 162.763 120.675 163.125 121.017 163.616C121.806 164.725 122.201 165.813 122.201 166.88C122.201 167.456 122.073 167.947 121.817 168.352C121.582 168.757 121.241 169.195 120.793 169.664C120.43 170.048 119.854 170.304 119.065 170.432C118.297 170.56 117.529 170.624 116.76 170.624C116.27 170.624 115.673 170.581 114.969 170.496C114.265 170.389 113.582 170.261 112.921 170.112C112.963 170.539 113.07 170.955 113.241 171.36C113.411 171.765 113.614 172.075 113.849 172.288C114.275 172.693 114.713 172.949 115.161 173.056C115.63 173.163 116.227 173.216 116.953 173.216C117.721 173.216 118.435 173.088 119.097 172.832C119.63 172.64 120.067 172.544 120.409 172.544C120.814 172.544 121.123 172.672 121.337 172.928C121.55 173.163 121.657 173.472 121.657 173.856C121.657 174.389 121.347 174.827 120.729 175.168C120.11 175.509 119.395 175.765 118.585 175.936C117.795 176.085 117.155 176.16 116.665 176.16C115.662 176.16 114.691 175.979 113.753 175.616C112.814 175.253 112.035 174.741 111.417 174.08C110.905 173.483 110.499 172.768 110.201 171.936C109.902 171.083 109.753 170.176 109.753 169.216ZM116.729 164.896C116.259 164.896 115.79 164.992 115.321 165.184C114.851 165.355 114.467 165.6 114.169 165.92C113.785 166.325 113.518 166.656 113.369 166.912C113.241 167.147 113.155 167.477 113.113 167.904C113.646 168.075 114.755 168.16 116.441 168.16C117.358 168.16 118.062 168.021 118.553 167.744C119.065 167.467 119.321 167.104 119.321 166.656C119.321 166.208 119.043 165.803 118.489 165.44C117.934 165.077 117.347 164.896 116.729 164.896ZM134.219 168.8C134.389 168.907 134.72 169.109 135.211 169.408C135.723 169.685 136.064 170.016 136.235 170.4C136.405 170.784 136.491 171.317 136.491 172C136.491 172.768 136.267 173.451 135.819 174.048C135.371 174.624 134.795 175.072 134.091 175.392C133.579 175.627 132.949 175.808 132.203 175.936C131.477 176.064 130.901 176.128 130.475 176.128C130.048 176.128 129.493 176.064 128.811 175.936C128.149 175.808 127.691 175.691 127.435 175.584C126.773 175.2 126.197 174.731 125.707 174.176C125.237 173.621 125.003 173.056 125.003 172.48C125.003 172.053 125.141 171.723 125.419 171.488C125.696 171.232 126.059 171.104 126.507 171.104C126.72 171.104 126.944 171.189 127.179 171.36C127.413 171.509 127.573 171.669 127.659 171.84C127.893 172.395 128.288 172.811 128.843 173.088C129.397 173.365 129.963 173.504 130.539 173.504C131.285 173.504 131.979 173.387 132.619 173.152C133.259 172.896 133.579 172.555 133.579 172.128C133.579 171.936 133.525 171.787 133.419 171.68C133.333 171.552 133.205 171.424 133.035 171.296C132.736 171.083 132.288 170.912 131.691 170.784C131.093 170.635 130.709 170.539 130.539 170.496C129.664 170.304 128.811 170.016 127.979 169.632C127.147 169.227 126.485 168.747 125.995 168.192C125.504 167.637 125.259 166.923 125.259 166.048C125.259 165.472 125.472 164.875 125.899 164.256C126.325 163.616 126.805 163.168 127.339 162.912C127.723 162.763 128.363 162.603 129.259 162.432C130.176 162.261 130.795 162.176 131.115 162.176C131.605 162.176 132.139 162.229 132.715 162.336C133.291 162.421 133.728 162.571 134.027 162.784C134.603 163.125 135.072 163.488 135.435 163.872C135.797 164.235 135.979 164.651 135.979 165.12C135.979 165.355 135.925 165.611 135.819 165.888C135.712 166.144 135.584 166.304 135.435 166.368C135.115 166.517 134.741 166.592 134.315 166.592C134.123 166.592 133.963 166.539 133.835 166.432C133.728 166.325 133.579 166.155 133.387 165.92C133.152 165.557 132.928 165.344 132.715 165.28C132.459 165.216 132.085 165.141 131.595 165.056C131.104 164.949 130.773 164.896 130.603 164.896C130.112 164.896 129.6 165.035 129.067 165.312C128.555 165.589 128.299 165.909 128.299 166.272C128.299 166.464 128.373 166.613 128.523 166.72C128.693 166.827 128.864 166.923 129.035 167.008C129.227 167.093 129.355 167.147 129.419 167.168C129.867 167.381 130.357 167.563 130.891 167.712C131.445 167.861 131.787 167.957 131.915 168C133.067 168.277 133.835 168.544 134.219 168.8Z" fill="#2F2F2F"/>
</svg>
