<svg width="329" height="329" viewBox="0 0 329 329" fill="none" xmlns="http://www.w3.org/2000/svg">
<path d="M0 0H329V329H0V0Z" fill="#2F2F2F"/>
<path d="M233 149C233 187.108 202.108 218 164 218C125.892 218 95 187.108 95 149C95 110.892 125.892 80 164 80C202.108 80 233 110.892 233 149Z" fill="white"/>
<path d="M181.872 120.912C184.517 124.496 185.84 128.336 185.84 132.432C185.84 135.333 185.2 137.936 183.92 140.24C182.64 142.544 180.635 145.147 177.904 148.048C175.515 150.523 173.765 152.869 172.656 155.088C171.547 157.221 170.821 159.227 170.48 161.104C170.224 162.896 169.925 165.755 169.584 169.68C169.584 171.643 168.901 173.093 167.536 174.032C166.171 174.885 164.763 175.312 163.312 175.312C159.472 175.312 157.552 173.008 157.552 168.4C157.552 165.925 157.979 162.981 158.832 159.568C159.685 156.155 161.264 152.443 163.568 148.432C164.336 147.067 165.317 145.701 166.512 144.336C167.792 142.971 168.603 142.075 168.944 141.648C170.309 140.197 171.461 138.704 172.4 137.168C173.339 135.547 173.808 134.139 173.808 132.944C173.808 131.579 173.595 130.512 173.168 129.744C172.827 128.976 172.272 128.123 171.504 127.184C170.395 125.904 168.944 124.88 167.152 124.112C165.36 123.344 163.696 122.96 162.16 122.96C159.685 122.96 157.381 123.429 155.248 124.368C153.2 125.221 151.536 126.373 150.256 127.824C149.061 129.189 148.464 130.597 148.464 132.048C148.464 134.437 148.933 136.229 149.872 137.424C150.811 138.533 151.28 139.557 151.28 140.496C151.28 141.008 151.152 141.605 150.896 142.288C149.872 144.677 148.123 145.872 145.648 145.872C142.491 145.872 140.187 144.677 138.736 142.288C137.285 139.899 136.56 136.869 136.56 133.2C136.56 129.701 137.669 126.373 139.888 123.216C142.107 119.973 145.349 117.328 149.616 115.28C153.883 113.232 158.96 112.208 164.848 112.208C168.261 112.208 171.461 112.976 174.448 114.512C177.435 115.963 179.909 118.096 181.872 120.912ZM163.312 180.176C165.872 180.176 167.92 181.072 169.456 182.864C170.736 184.144 171.376 185.893 171.376 188.112C171.376 189.989 170.48 191.568 168.688 192.848C166.896 194.043 164.933 194.64 162.8 194.64C161.264 194.64 159.771 194.213 158.32 193.36C156.528 192.08 155.632 189.819 155.632 186.576C155.632 184.869 156.4 183.376 157.936 182.096C159.557 180.816 161.349 180.176 163.312 180.176Z" fill="#2F2F2F"/>
<path d="M115.92 230.24C116.24 230.624 116.464 230.933 116.592 231.168C116.72 231.403 116.784 231.627 116.784 231.84C116.784 232.096 116.613 232.395 116.272 232.736C115.952 233.077 115.632 233.248 115.312 233.248C114.885 233.248 114.544 233.184 114.288 233.056C114.032 232.928 113.819 232.725 113.648 232.448C113.307 231.936 112.891 231.499 112.4 231.136C111.909 230.752 111.141 230.56 110.096 230.56C109.2 230.56 108.176 230.763 107.024 231.168C105.893 231.573 105.083 232.075 104.592 232.672C104.165 233.205 103.792 234.016 103.472 235.104C103.173 236.192 103.024 237.248 103.024 238.272C103.024 239.509 103.291 240.651 103.824 241.696C104.379 242.72 105.168 243.541 106.192 244.16C107.237 244.779 108.485 245.088 109.936 245.088C110.725 245.088 111.536 244.939 112.368 244.64C113.221 244.32 113.957 243.808 114.576 243.104H114.544C114.928 242.699 115.408 242.496 115.984 242.496C116.325 242.496 116.645 242.645 116.944 242.944C117.264 243.243 117.424 243.541 117.424 243.84C117.424 244.16 117.371 244.448 117.264 244.704C117.179 244.939 117.008 245.205 116.752 245.504C115.877 246.485 114.843 247.157 113.648 247.52C112.453 247.883 111.024 248.064 109.36 248.064C107.888 248.064 106.395 247.712 104.88 247.008C103.387 246.304 102.235 245.451 101.424 244.448C100.997 243.829 100.581 242.944 100.176 241.792C99.792 240.619 99.6 239.669 99.6 238.944C99.6 237.088 99.8773 235.328 100.432 233.664C101.008 231.979 101.861 230.635 102.992 229.632C103.739 228.949 104.816 228.437 106.224 228.096C107.632 227.755 108.923 227.584 110.096 227.584C111.525 227.584 112.645 227.787 113.456 228.192C114.288 228.576 115.109 229.259 115.92 230.24Z" fill="white"/>
<path d="M132.93 237.728C133.101 238.027 133.24 238.464 133.346 239.04C133.453 239.595 133.507 240.096 133.507 240.544C133.507 241.376 133.325 242.56 132.962 244.096C131.49 246.784 129.315 248.128 126.435 248.128C125.368 248.128 124.28 247.776 123.171 247.072C122.061 246.368 121.293 245.557 120.867 244.64C120.291 242.805 120.003 241.643 120.003 241.152C120.003 240.299 120.184 239.392 120.547 238.432C120.931 237.472 121.411 236.64 121.987 235.936C122.349 235.445 123 235.029 123.938 234.688C124.877 234.325 125.73 234.144 126.498 234.144C127.992 234.144 129.261 234.432 130.307 235.008C131.352 235.563 132.226 236.469 132.93 237.728ZM130.146 242.88C130.253 242.603 130.307 241.888 130.307 240.736C130.307 240.117 130.189 239.509 129.954 238.912C129.741 238.315 129.421 237.803 128.995 237.376C128.952 237.333 128.835 237.269 128.643 237.184C128.451 237.077 128.184 236.981 127.842 236.896C127.522 236.789 127.149 236.736 126.723 236.736C125.528 236.736 124.653 237.216 124.099 238.176C123.544 239.136 123.267 240.224 123.267 241.44C123.267 241.653 123.32 242.059 123.426 242.656C123.554 243.253 123.661 243.627 123.746 243.776C123.81 243.925 123.971 244.139 124.227 244.416C124.504 244.672 124.834 244.907 125.218 245.12C125.624 245.312 126.04 245.408 126.466 245.408C127.426 245.408 128.195 245.184 128.771 244.736C129.347 244.267 129.805 243.648 130.146 242.88Z" fill="white"/>
<path d="M138.01 234.112C139.418 234.112 140.122 235.04 140.122 236.896C140.122 237.131 140.1 237.653 140.057 238.464C140.015 239.403 139.993 240.139 139.993 240.672C139.993 242.165 140.196 243.371 140.602 244.288C140.751 244.587 141.018 244.821 141.402 244.992C141.807 245.163 142.148 245.248 142.426 245.248C142.852 245.248 143.204 245.195 143.482 245.088C143.759 244.981 144.015 244.821 144.249 244.608C144.505 244.395 144.751 244.16 144.986 243.904C145.391 243.456 145.647 242.944 145.753 242.368C145.881 241.771 145.956 240.981 145.978 240C145.978 239.381 146.01 238.784 146.074 238.208C146.202 237.269 146.266 236.395 146.266 235.584C146.266 235.136 146.383 234.763 146.617 234.464C146.873 234.144 147.236 233.984 147.706 233.984C147.94 233.984 148.218 234.069 148.538 234.24C148.879 234.389 149.103 234.56 149.21 234.752C149.359 235.008 149.434 235.36 149.434 235.808C149.434 236.085 149.401 236.341 149.337 236.576C149.231 236.896 149.178 237.301 149.178 237.792C149.178 238.048 149.199 238.475 149.242 239.072C149.306 239.52 149.337 239.979 149.337 240.448C149.337 241.877 149.444 242.933 149.658 243.616C149.892 244.341 150.212 244.981 150.617 245.536C151.044 245.984 151.332 246.315 151.482 246.528C151.631 246.72 151.706 246.891 151.706 247.04C151.706 247.296 151.578 247.541 151.322 247.776C151.066 248.011 150.799 248.128 150.521 248.128C149.732 248.128 149.039 247.861 148.441 247.328C147.865 246.773 147.439 246.069 147.161 245.216C146.927 245.493 146.618 245.835 146.234 246.24C145.85 246.645 145.487 246.976 145.146 247.232C144.314 247.829 143.247 248.128 141.945 248.128C141.412 248.128 140.826 247.968 140.186 247.648C139.567 247.328 139.002 246.912 138.49 246.4C137.978 245.867 137.626 245.301 137.434 244.704C137.412 244.661 137.348 244.491 137.242 244.192C137.156 243.893 137.113 243.445 137.113 242.848L137.081 237.728C137.081 237.429 137.007 236.96 136.857 236.32C136.729 235.893 136.665 235.573 136.665 235.36C136.665 234.997 136.783 234.699 137.018 234.464C137.274 234.229 137.604 234.112 138.01 234.112Z" fill="white"/>
<path d="M168.694 245.536C168.801 245.579 168.972 245.632 169.206 245.696C169.441 245.76 169.612 245.824 169.718 245.888C169.825 245.952 169.878 246.048 169.878 246.176C169.9 246.688 169.708 247.115 169.302 247.456C168.918 247.776 168.46 247.936 167.926 247.936C167.094 247.936 166.444 247.712 165.974 247.264C165.505 246.816 165.164 246.133 164.95 245.216C164.865 244.853 164.822 244.352 164.822 243.712C164.822 243.349 164.844 242.763 164.886 241.952C164.929 241.099 164.95 240.416 164.95 239.904C164.95 239.157 164.737 238.507 164.31 237.952C163.905 237.376 163.329 237.088 162.582 237.088C162.134 237.088 161.665 237.227 161.174 237.504C160.684 237.76 160.342 238.08 160.15 238.464C159.83 239.083 159.606 239.755 159.478 240.48C159.244 241.76 159.126 243.093 159.126 244.48C159.126 245.141 159.137 245.653 159.158 246.016C159.158 246.101 159.158 246.272 159.158 246.528C159.18 246.763 159.158 246.987 159.094 247.2C159.052 247.392 158.966 247.573 158.838 247.744C158.732 247.851 158.561 247.936 158.326 248C158.113 248.085 157.91 248.128 157.718 248.128C157.42 248.128 157.046 248 156.598 247.744C156.15 247.488 155.894 247.2 155.83 246.88L155.798 246.336C155.798 246.144 155.82 245.92 155.862 245.664C156.118 244.171 156.246 242.869 156.246 241.76C156.246 241.269 156.236 240.885 156.214 240.608L156.182 239.104C156.182 238.592 156.054 238.101 155.798 237.632C155.542 237.141 155.244 236.896 154.902 236.896C154.796 236.896 154.646 236.939 154.454 237.024C154.262 237.088 154.102 237.12 153.974 237.12C153.761 237.12 153.526 237.013 153.27 236.8C153.036 236.587 152.918 236.363 152.918 236.128C152.918 235.68 153.068 235.317 153.366 235.04C153.686 234.784 153.996 234.581 154.294 234.432C154.614 234.283 154.977 234.208 155.382 234.208C155.724 234.208 156.001 234.24 156.214 234.304C156.428 234.368 156.716 234.507 157.078 234.72C157.27 234.827 157.494 235.061 157.75 235.424C158.006 235.787 158.22 236.299 158.39 236.96C158.945 235.936 159.628 235.221 160.438 234.816C161.27 234.389 162.326 234.176 163.606 234.176C164.097 234.176 164.62 234.336 165.174 234.656C165.75 234.976 166.241 235.349 166.646 235.776C167.03 236.245 167.35 236.832 167.606 237.536C167.862 238.219 167.99 238.837 167.99 239.392C167.99 239.712 167.969 240.235 167.926 240.96C167.862 241.536 167.83 242.144 167.83 242.784C167.83 244.277 168.118 245.195 168.694 245.536Z" fill="white"/>
<path d="M172.196 236.864C171.897 236.821 171.652 236.704 171.46 236.512C171.289 236.299 171.204 236.043 171.204 235.744C171.204 235.36 171.353 235.04 171.652 234.784C171.716 234.72 171.823 234.667 171.972 234.624C172.121 234.56 172.239 234.507 172.324 234.464C172.793 234.315 173.092 234.197 173.22 234.112C173.711 233.813 174.041 233.323 174.212 232.64C174.383 231.829 174.489 231.275 174.532 230.976C174.575 230.507 174.724 230.155 174.98 229.92C175.257 229.664 175.599 229.536 176.004 229.536C176.537 229.536 176.911 229.675 177.124 229.952C177.337 230.229 177.444 230.741 177.444 231.488C177.444 232.469 177.209 233.397 176.74 234.272C177.039 234.272 177.529 234.251 178.212 234.208C179.236 234.165 179.951 234.144 180.356 234.144C180.719 234.144 181.028 234.24 181.284 234.432C181.561 234.603 181.7 234.859 181.7 235.2C181.7 236.011 181.327 236.491 180.58 236.64C179.897 236.832 178.66 236.949 176.868 236.992C176.719 239.083 176.644 240.736 176.644 241.952C176.644 242.699 176.676 243.232 176.74 243.552C176.868 244.213 177.081 244.704 177.38 245.024C177.7 245.323 178.169 245.472 178.788 245.472C179.087 245.472 179.535 245.397 180.132 245.248C180.495 245.141 180.783 245.088 180.996 245.088C181.273 245.088 181.487 245.184 181.636 245.376C181.785 245.568 181.86 245.824 181.86 246.144C181.86 246.72 181.487 247.2 180.74 247.584C179.993 247.947 179.108 248.128 178.084 248.128C177.444 248.128 176.815 247.979 176.196 247.68C175.577 247.36 175.055 246.976 174.628 246.528C174.543 246.485 174.415 246.251 174.244 245.824C174.095 245.397 173.945 244.928 173.796 244.416C173.732 244.16 173.7 243.541 173.7 242.56C173.7 241.621 173.764 240 173.892 237.696L173.924 236.992C173.775 236.992 173.497 236.981 173.092 236.96C172.687 236.917 172.388 236.885 172.196 236.864Z" fill="white"/>
<path d="M188.613 246.72C188.57 247.083 188.421 247.403 188.165 247.68C187.909 247.957 187.578 248.096 187.173 248.096C186.533 248.096 186.063 247.979 185.765 247.744C185.466 247.488 185.317 247.029 185.317 246.368C185.317 245.472 185.37 244.491 185.477 243.424C185.562 242.187 185.605 241.237 185.605 240.576C185.605 240.235 185.583 239.808 185.541 239.296C185.498 238.827 185.477 238.475 185.477 238.24C185.413 237.877 185.263 237.589 185.029 237.376C184.815 237.163 184.474 236.981 184.005 236.832C183.813 236.747 183.653 236.608 183.525 236.416C183.397 236.203 183.333 236.011 183.333 235.84C183.333 235.349 183.525 234.976 183.909 234.72C184.293 234.464 184.762 234.336 185.317 234.336C185.935 234.336 186.469 234.549 186.917 234.976C187.365 235.403 187.706 235.936 187.941 236.576C188.431 235.872 189.029 235.307 189.733 234.88C190.458 234.453 191.162 234.24 191.845 234.24C192.719 234.24 193.455 234.389 194.053 234.688C194.671 234.965 194.981 235.456 194.981 236.16C194.981 236.565 194.799 236.992 194.437 237.44C194.095 237.867 193.743 238.08 193.381 238.08C193.103 238.08 192.773 237.952 192.389 237.696C192.239 237.589 192.069 237.504 191.877 237.44C191.706 237.355 191.525 237.312 191.333 237.312C190.991 237.312 190.671 237.365 190.373 237.472C190.074 237.579 189.871 237.707 189.765 237.856C189.423 238.389 189.167 238.869 188.997 239.296C188.847 239.723 188.773 240.181 188.773 240.672C188.773 241.035 188.762 241.323 188.741 241.536L188.709 243.36L188.741 244.576C188.741 245.472 188.698 246.187 188.613 246.72Z" fill="white"/>
<path d="M198.452 227.456C199.198 227.52 199.838 227.723 200.372 228.064C200.926 228.384 201.204 228.875 201.204 229.536C201.204 230.027 200.979 230.421 200.531 230.72C200.083 230.997 199.529 231.136 198.867 231.136C198.249 231.136 197.822 230.976 197.587 230.656C197.353 230.336 197.236 230.005 197.236 229.664C197.236 229.045 197.31 228.523 197.46 228.096C197.609 227.648 197.94 227.435 198.452 227.456ZM197.811 240.672V239.744C197.811 238.677 197.758 237.707 197.652 236.832C197.566 235.936 197.513 235.381 197.492 235.168C197.513 234.933 197.673 234.709 197.971 234.496C198.27 234.283 198.537 234.176 198.771 234.176C199.177 234.176 199.582 234.261 199.988 234.432C200.414 234.581 200.681 234.773 200.788 235.008C200.894 235.797 200.947 236.405 200.947 236.832C200.947 237.771 200.99 239.307 201.076 241.44L201.107 242.688L201.171 243.904C201.193 244.245 201.214 244.651 201.236 245.12C201.257 245.589 201.268 246.123 201.268 246.72C201.268 247.125 201.065 247.467 200.66 247.744C200.276 248.021 199.87 248.16 199.443 248.16C198.825 248.16 198.388 248.021 198.132 247.744C197.897 247.467 197.779 247.029 197.779 246.432L197.811 240.672Z" fill="white"/>
<path d="M204.753 241.216C204.753 240.405 204.902 239.595 205.201 238.784C205.499 237.952 205.894 237.195 206.385 236.512C206.875 235.829 207.654 235.275 208.721 234.848C209.787 234.4 210.736 234.176 211.568 234.176C212.422 234.176 213.286 234.293 214.161 234.528C215.057 234.763 215.675 235.125 216.016 235.616C216.806 236.725 217.201 237.813 217.201 238.88C217.201 239.456 217.072 239.947 216.816 240.352C216.582 240.757 216.24 241.195 215.792 241.664C215.43 242.048 214.854 242.304 214.064 242.432C213.296 242.56 212.528 242.624 211.76 242.624C211.27 242.624 210.673 242.581 209.969 242.496C209.265 242.389 208.582 242.261 207.921 242.112C207.963 242.539 208.07 242.955 208.24 243.36C208.411 243.765 208.614 244.075 208.848 244.288C209.275 244.693 209.713 244.949 210.161 245.056C210.63 245.163 211.227 245.216 211.952 245.216C212.72 245.216 213.435 245.088 214.096 244.832C214.63 244.64 215.067 244.544 215.409 244.544C215.814 244.544 216.123 244.672 216.337 244.928C216.55 245.163 216.656 245.472 216.656 245.856C216.656 246.389 216.347 246.827 215.729 247.168C215.11 247.509 214.395 247.765 213.585 247.936C212.795 248.085 212.155 248.16 211.665 248.16C210.662 248.16 209.691 247.979 208.753 247.616C207.814 247.253 207.035 246.741 206.417 246.08C205.905 245.483 205.499 244.768 205.201 243.936C204.902 243.083 204.753 242.176 204.753 241.216ZM211.729 236.896C211.259 236.896 210.79 236.992 210.32 237.184C209.851 237.355 209.467 237.6 209.169 237.92C208.785 238.325 208.518 238.656 208.368 238.912C208.24 239.147 208.155 239.477 208.113 239.904C208.646 240.075 209.755 240.16 211.441 240.16C212.358 240.16 213.062 240.021 213.553 239.744C214.065 239.467 214.32 239.104 214.32 238.656C214.32 238.208 214.043 237.803 213.488 237.44C212.934 237.077 212.347 236.896 211.729 236.896Z" fill="white"/>
<path d="M229.219 240.8C229.389 240.907 229.72 241.109 230.21 241.408C230.722 241.685 231.064 242.016 231.234 242.4C231.405 242.784 231.49 243.317 231.49 244C231.49 244.768 231.266 245.451 230.818 246.048C230.37 246.624 229.794 247.072 229.09 247.392C228.578 247.627 227.949 247.808 227.202 247.936C226.477 248.064 225.901 248.128 225.475 248.128C225.048 248.128 224.493 248.064 223.811 247.936C223.149 247.808 222.69 247.691 222.434 247.584C221.773 247.2 221.197 246.731 220.706 246.176C220.237 245.621 220.003 245.056 220.003 244.48C220.003 244.053 220.141 243.723 220.419 243.488C220.696 243.232 221.059 243.104 221.507 243.104C221.72 243.104 221.944 243.189 222.178 243.36C222.413 243.509 222.573 243.669 222.658 243.84C222.893 244.395 223.288 244.811 223.842 245.088C224.397 245.365 224.962 245.504 225.538 245.504C226.285 245.504 226.978 245.387 227.618 245.152C228.258 244.896 228.579 244.555 228.579 244.128C228.579 243.936 228.525 243.787 228.419 243.68C228.333 243.552 228.205 243.424 228.035 243.296C227.736 243.083 227.288 242.912 226.691 242.784C226.093 242.635 225.709 242.539 225.538 242.496C224.664 242.304 223.811 242.016 222.979 241.632C222.147 241.227 221.485 240.747 220.995 240.192C220.504 239.637 220.258 238.923 220.258 238.048C220.258 237.472 220.472 236.875 220.898 236.256C221.325 235.616 221.805 235.168 222.339 234.912C222.723 234.763 223.362 234.603 224.258 234.432C225.176 234.261 225.795 234.176 226.115 234.176C226.605 234.176 227.139 234.229 227.715 234.336C228.291 234.421 228.728 234.571 229.027 234.784C229.603 235.125 230.072 235.488 230.434 235.872C230.797 236.235 230.979 236.651 230.979 237.12C230.979 237.355 230.925 237.611 230.818 237.888C230.712 238.144 230.584 238.304 230.434 238.368C230.114 238.517 229.741 238.592 229.314 238.592C229.122 238.592 228.963 238.539 228.835 238.432C228.728 238.325 228.579 238.155 228.387 237.92C228.152 237.557 227.928 237.344 227.715 237.28C227.459 237.216 227.085 237.141 226.594 237.056C226.104 236.949 225.773 236.896 225.602 236.896C225.112 236.896 224.6 237.035 224.066 237.312C223.554 237.589 223.298 237.909 223.298 238.272C223.298 238.464 223.373 238.613 223.523 238.72C223.693 238.827 223.864 238.923 224.035 239.008C224.227 239.093 224.355 239.147 224.419 239.168C224.867 239.381 225.357 239.563 225.891 239.712C226.445 239.861 226.787 239.957 226.915 240C228.067 240.277 228.835 240.544 229.219 240.8Z" fill="white"/>
</svg>
